<?xml version="1.0" encoding="UTF-8" standalone="no"?><svg xmlns="http://www.w3.org/2000/svg" xmlns:xlink="http://www.w3.org/1999/xlink" contentScriptType="application/ecmascript" contentStyleType="text/css" height="164px" preserveAspectRatio="none" style="width:635px;height:164px;" version="1.1" viewBox="0 0 635 164" width="635px" zoomAndPan="magnify"><defs><filter height="300%" id="fdx7t1h9r8qh1" width="300%" x="-1" y="-1"><feGaussianBlur result="blurOut" stdDeviation="2.0"/><feColorMatrix in="blurOut" result="blurOut2" type="matrix" values="0 0 0 0 0 0 0 0 0 0 0 0 0 0 0 0 0 0 .4 0"/><feOffset dx="4.0" dy="4.0" in="blurOut2" result="blurOut3"/><feBlend in="SourceGraphic" in2="blurOut3" mode="normal"/></filter></defs><g><text fill="#000000" font-family="sans-serif" font-size="18" lengthAdjust="spacingAndGlyphs" textLength="414" x="108.5" y="16.708">Drupal 7 site integrated with NemID via Nemlogin</text><!--cluster drupal--><rect fill="#FFFFFF" filter="url(#fdx7t1h9r8qh1)" height="110" style="stroke: #000000; stroke-width: 1.5;" width="222" x="88" y="43.9531"/><path d="M304,44.9531 L304,53.25 L294,63.25 L88,63.25 " fill="none" style="stroke: #000000; stroke-width: 1.5;"/><text fill="#000000" font-family="sans-serif" font-size="14" font-weight="bold" lengthAdjust="spacingAndGlyphs" textLength="206" x="91" y="57.9482">Drupal 7 - helbredsprofilen.dk</text><!--cluster Java - Nemlogin--><rect fill="#FFFFFF" filter="url(#fdx7t1h9r8qh1)" height="75" style="stroke: #000000; stroke-width: 1.5;" width="124" x="354" y="78.9531"/><path d="M472,79.9531 L472,88.25 L462,98.25 L354,98.25 " fill="none" style="stroke: #000000; stroke-width: 1.5;"/><text fill="#000000" font-family="sans-serif" font-size="14" font-weight="bold" lengthAdjust="spacingAndGlyphs" textLength="108" x="357" y="92.9482">Java - Nemlogin</text><!--entity hp_nemlogin--><rect fill="#FEFECE" filter="url(#fdx7t1h9r8qh1)" height="39.2969" style="stroke: #000000; stroke-width: 1.5;" width="112" x="143" y="106.4531"/><polygon fill="#FEFECE" points="238,111.4531,238,125.4531,250,125.4531,250,117.4531,244,111.4531,238,111.4531" style="stroke: #000000; stroke-width: 1.5;"/><line style="stroke: #000000; stroke-width: 1.5;" x1="244" x2="244" y1="111.4531" y2="117.4531"/><line style="stroke: #000000; stroke-width: 1.5;" x1="250" x2="244" y1="117.4531" y2="117.4531"/><text fill="#000000" font-family="sans-serif" font-size="14" lengthAdjust="spacingAndGlyphs" textLength="82" x="153" y="132.4482">hp_nemlogin</text><!--entity nemlogin--><rect fill="#FEFECE" filter="url(#fdx7t1h9r8qh1)" height="39.2969" style="stroke: #000000; stroke-width: 1.5;" width="90" x="371" y="106.4531"/><polygon fill="#FEFECE" points="444,111.4531,444,125.4531,456,125.4531,456,117.4531,450,111.4531,444,111.4531" style="stroke: #000000; stroke-width: 1.5;"/><line style="stroke: #000000; stroke-width: 1.5;" x1="450" x2="450" y1="111.4531" y2="117.4531"/><line style="stroke: #000000; stroke-width: 1.5;" x1="456" x2="450" y1="117.4531" y2="117.4531"/><text fill="#000000" font-family="sans-serif" font-size="14" lengthAdjust="spacingAndGlyphs" textLength="60" x="381" y="132.4482">nemlogin</text><!--entity User--><ellipse cx="21" cy="39.4531" fill="#FEFECE" filter="url(#fdx7t1h9r8qh1)" rx="8" ry="8" style="stroke: #A80036; stroke-width: 2.0;"/><path d="M21,47.4531 L21,74.4531 M8,55.4531 L34,55.4531 M21,74.4531 L8,89.4531 M21,74.4531 L34,89.4531 " fill="none" filter="url(#fdx7t1h9r8qh1)" style="stroke: #A80036; stroke-width: 2.0;"/><text fill="#000000" font-family="sans-serif" font-size="14" lengthAdjust="spacingAndGlyphs" textLength="30" x="6" y="109.4482">User</text><!--entity Nemid--><polygon fill="#FEFECE" filter="url(#fdx7t1h9r8qh1)" points="530,112.9531,540,102.9531,613,102.9531,613,139.25,603,149.25,530,149.25,530,112.9531" style="stroke: #000000; stroke-width: 1.5;"/><line style="stroke: #000000; stroke-width: 1.5;" x1="603" x2="612" y1="112.9531" y2="103.9531"/><line style="stroke: #000000; stroke-width: 1.5;" x1="530" x2="603" y1="112.9531" y2="112.9531"/><line style="stroke: #000000; stroke-width: 1.5;" x1="603" x2="603" y1="112.9531" y2="149.25"/><text fill="#000000" font-family="sans-serif" font-size="14" lengthAdjust="spacingAndGlyphs" textLength="43" x="545" y="135.9482">Nemid</text><!--link User to drupal--><path d="M41.2931,70.9531 C52.3953,70.9531 67.1369,70.9531 83.1588,70.9531 C84.1602,70.9531 85.1666,70.9531 86.1774,70.9531 C86.6828,70.9531 87.1893,70.9531 87.6968,70.9531 " fill="none" id="User-drupal" style="stroke: #A80036; stroke-width: 1.0;"/><polygon fill="#A80036" points="87.6968,70.9531,78.6968,66.9531,82.6968,70.9531,78.6968,74.9531,87.6968,70.9531" style="stroke: #A80036; stroke-width: 1.0;"/><polygon fill="#A80036" points="36.1762,70.9531,45.1762,74.9531,41.1762,70.9531,45.1762,66.9531,36.1762,70.9531" style="stroke: #A80036; stroke-width: 1.0;"/><!--link hp_nemlogin to nemlogin--><path d="M260.2978,125.9531 C293.5817,125.9531 334.2268,125.9531 365.6424,125.9531 " fill="none" id="hp_nemlogin-nemlogin" style="stroke: #A80036; stroke-width: 1.0;"/><polygon fill="#A80036" points="370.9989,125.9531,361.9989,121.9531,365.9989,125.9531,361.9989,129.9531,370.9989,125.9531" style="stroke: #A80036; stroke-width: 1.0;"/><polygon fill="#A80036" points="255.1651,125.9531,264.1651,129.9531,260.1651,125.9531,264.1651,121.9531,255.1651,125.9531" style="stroke: #A80036; stroke-width: 1.0;"/><!--link nemlogin to Nemid--><path d="M466.5287,125.9531 C485.2235,125.9531 506.3213,125.9531 524.6731,125.9531 " fill="none" id="nemlogin-Nemid" style="stroke: #A80036; stroke-width: 1.0;"/><polygon fill="#A80036" points="529.7722,125.9531,520.7722,121.9531,524.7722,125.9531,520.7722,129.9531,529.7722,125.9531" style="stroke: #A80036; stroke-width: 1.0;"/><polygon fill="#A80036" points="461.3951,125.9531,470.3951,129.9531,466.3951,125.9531,470.3951,121.9531,461.3951,125.9531" style="stroke: #A80036; stroke-width: 1.0;"/><!--
@startuml
title Drupal 7 site integrated with NemID via Nemlogin
left to right direction
actor User

frame "Drupal 7 - helbredsprofilen.dk" as drupal {
 artifact hp_nemlogin 
}

frame "Java - Nemlogin" {
 artifact nemlogin
}

node Nemid

User <- -> drupal
hp_nemlogin <- -> nemlogin
nemlogin <- -> Nemid

@enduml

PlantUML version 1.2019.05(Sat Apr 20 16:45:36 GMT 2019)
(GPL source distribution)
Java Runtime: Java(TM) SE Runtime Environment
JVM: Java HotSpot(TM) 64-Bit Server VM
Java Version: 1.8.0_202-b08
Operating System: Linux
OS Version: 5.0.0-1020-azure
Default Encoding: ANSI_X3.4-1968
Language: en
Country: US
--></g></svg>